<?xml version="1.0" encoding="UTF-8" standalone="no"?>
<!-- Created with Inkscape (http://www.inkscape.org/) -->
<svg
   xmlns:dc="http://purl.org/dc/elements/1.1/"
   xmlns:cc="http://creativecommons.org/ns#"
   xmlns:rdf="http://www.w3.org/1999/02/22-rdf-syntax-ns#"
   xmlns:svg="http://www.w3.org/2000/svg"
   xmlns="http://www.w3.org/2000/svg"
   xmlns:xlink="http://www.w3.org/1999/xlink"
   xmlns:sodipodi="http://sodipodi.sourceforge.net/DTD/sodipodi-0.dtd"
   xmlns:inkscape="http://www.inkscape.org/namespaces/inkscape"
   id="svg2"
   sodipodi:version="0.32"
   inkscape:version="0.46"
   width="500"
   height="500"
   version="1.0"
   sodipodi:docname="Stuyvesant High School logo.svg"
   inkscape:output_extension="org.inkscape.output.svg.inkscape">
  <metadata
     id="metadata7">
    <rdf:RDF>
      <cc:Work
         rdf:about="">
        <dc:format>image/svg+xml</dc:format>
        <dc:type
           rdf:resource="http://purl.org/dc/dcmitype/StillImage" />
      </cc:Work>
    </rdf:RDF>
  </metadata>
  <defs
     id="defs5">
    <pattern
       inkscape:collect="always"
       xlink:href="#pattern5270"
       id="pattern2440"
       patternTransform="matrix(10.441714,0,0,10.441714,-238.1087,-194.17238)" />
    <pattern
       inkscape:collect="always"
       xlink:href="#pattern5260"
       id="pattern5270"
       patternTransform="matrix(10.441714,0,0,10.441714,-248.1087,-204.17239)" />
    <pattern
       inkscape:collect="always"
       xlink:href="#pattern5239"
       id="pattern5260"
       patternTransform="matrix(1.368798,0,0,1.368798,-15.109669,-4.2298676)" />
    <pattern
       inkscape:collect="always"
       xlink:href="#pattern5233"
       id="pattern5239"
       patternTransform="matrix(1.368798,0,0,1.368798,-15.109669,-4.2298676)" />
    <pattern
       inkscape:collect="always"
       xlink:href="#Checkerboard"
       id="pattern5233"
       patternTransform="matrix(1.368798,0,0,1.368798,-15.109669,-4.2298676)" />
    <pattern
       inkscape:stockid="Checkerboard"
       id="Checkerboard"
       patternTransform="scale(1.4401295,1.4401295)"
       height="2"
       width="2"
       patternUnits="userSpaceOnUse"
       inkscape:collect="always">
      <rect
         id="rect3995"
         height="1"
         width="1"
         y="0"
         x="0"
         style="fill:black;stroke:none" />
      <rect
         id="rect3997"
         height="1"
         width="1"
         y="1"
         x="1"
         style="fill:black;stroke:none" />
    </pattern>
  </defs>
  <sodipodi:namedview
     inkscape:window-height="968"
     inkscape:window-width="1280"
     inkscape:pageshadow="2"
     inkscape:pageopacity="1"
     guidetolerance="10.0"
     gridtolerance="10.0"
     objecttolerance="10.0"
     borderopacity="1.0"
     bordercolor="#666666"
     pagecolor="#eeeeee"
     id="base"
     showgrid="false"
     inkscape:zoom="6.16"
     inkscape:cx="239.33524"
     inkscape:cy="292.77433"
     inkscape:window-x="-4"
     inkscape:window-y="-4"
     inkscape:current-layer="layer3" />
  <g
     inkscape:groupmode="layer"
     id="layer2"
     inkscape:label="Border"
     style="display:inline"
     transform="translate(176.08073,178.69189)">
    <path
       sodipodi:type="star"
       style="fill:none;fill-opacity:1;stroke:#000000;stroke-width:0.99093765;stroke-miterlimit:4;stroke-dasharray:none;stroke-opacity:1;display:inline"
       sodipodi:sides="24"
       sodipodi:cx="62.268398"
       sodipodi:cy="61.731602"
       sodipodi:r1="53.649033"
       sodipodi:r2="58.216122"
       sodipodi:arg1="-1.701261"
       sodipodi:arg2="-1.5760248"
       inkscape:flatsided="false"
       inkscape:rounded="0.5"
       inkscape:randomized="0"
       d="M 55.288934,8.5385028 C 59.427,7.9716772 57.787312,3.514445 61.964018,3.5162758 C 66.408528,3.5182239 64.884679,7.9875308 69.29414,8.5445953 C 73.43791,9.0680941 73.00771,4.338356 77.041625,5.4211355 C 81.334187,6.5733411 78.70552,10.495959 82.820554,12.175294 C 86.687637,13.753442 87.496242,9.0735219 91.11246,11.163461 C 94.960545,13.387403 91.406199,16.496011 94.946373,19.183174 C 98.273233,21.708422 100.26554,17.397249 103.21762,20.351921 C 106.35899,23.496041 102.12119,25.578794 104.84524,29.090659 C 107.40516,32.390916 110.44539,28.742289 112.53216,32.360338 C 114.75273,36.21037 110.12027,37.125332 111.84257,41.22257 C 113.46109,45.072929 117.34206,42.335496 118.42131,46.370358 C 119.56975,50.663929 114.85833,50.348746 115.4615,54.752137 C 116.02832,58.890203 120.48555,57.250515 120.48372,61.427222 C 120.48178,65.871732 116.01247,64.347882 115.4554,68.757344 C 114.93191,72.901114 119.66164,72.470914 118.57886,76.504828 C 117.42666,80.797391 113.50404,78.168724 111.82471,82.283758 C 110.24656,86.15084 114.92648,86.959445 112.83654,90.575664 C 110.6126,94.423748 107.50399,90.869403 104.81683,94.409576 C 102.29158,97.736437 106.60275,99.728741 103.64808,102.68082 C 100.50396,105.82219 98.421206,101.58439 94.909341,104.30844 C 91.609084,106.86836 95.257711,109.9086 91.639662,111.99536 C 87.78963,114.21593 86.874668,109.58347 82.77743,111.30577 C 78.927071,112.92429 81.664504,116.80527 77.629642,117.88451 C 73.336071,119.03295 73.651254,114.32153 69.247863,114.9247 C 65.109797,115.49153 66.749485,119.94876 62.572778,119.94693 C 58.128268,119.94498 59.652118,115.47567 55.242656,114.91861 C 51.098886,114.39511 51.529086,119.12485 47.495172,118.04207 C 43.202609,116.88986 45.831276,112.96724 41.716242,111.28791 C 37.84916,109.70976 37.040555,114.38968 33.424336,112.29974 C 29.576252,110.0758 33.130597,106.96719 29.590424,104.28003 C 26.263563,101.75478 24.271259,106.06595 21.319176,103.11128 C 18.17781,99.967162 22.415612,97.884409 19.691556,94.372545 C 17.131637,91.072288 14.091405,94.720915 12.004637,91.102866 C 9.7840693,87.252833 14.416527,86.337872 12.694229,82.240634 C 11.075707,78.390275 7.1947336,81.127708 6.1154908,77.092845 C 4.9670487,72.799274 9.6784689,73.114458 9.0752994,68.711066 C 8.5084737,64.573 4.0512416,66.212688 4.0530723,62.035982 C 4.0550204,57.591472 8.5243273,59.115321 9.0813919,54.70586 C 9.6048906,50.56209 4.8751526,50.99229 5.9579321,46.958375 C 7.1101376,42.665813 11.032755,45.29448 12.712091,41.179446 C 14.290239,37.312363 9.6103185,36.503758 11.700257,32.88754 C 13.924199,29.039455 17.032808,32.593801 19.719971,29.053627 C 22.245219,25.726767 17.934045,23.734462 20.888717,20.782379 C 24.032838,17.641014 26.115591,21.878815 29.627455,19.154759 C 32.927712,16.594841 29.279085,13.554608 32.897134,11.467841 C 36.747167,9.2472727 37.662128,13.879731 41.759366,12.157432 C 45.609725,10.53891 42.872292,6.657937 46.907155,5.5786942 C 51.200726,4.4302522 50.885542,9.1416723 55.288934,8.5385028 z"
       transform="matrix(4.0878342,0,0,4.0878342,-180.62362,-181.04044)"
       id="path3173" />
    <path
       sodipodi:type="arc"
       style="fill:none;fill-opacity:1;stroke:#000000;stroke-width:0.81132233;stroke-miterlimit:4;stroke-dasharray:none;stroke-opacity:1;display:inline"
       id="path3196"
       sodipodi:cx="71.528137"
       sodipodi:cy="63.744587"
       sodipodi:rx="41.735931"
       sodipodi:ry="41.735931"
       d="M 113.26407,63.744587 A 41.735931,41.735931 0 1 1 29.792206,63.744587 A 41.735931,41.735931 0 1 1 113.26407,63.744587 z"
       transform="matrix(4.992823,0,0,4.992823,-284.0998,-245.65397)" />
  </g>
  <g
     inkscape:groupmode="layer"
     id="layer3"
     inkscape:label="Middle"
     style="display:inline"
     transform="translate(176.08073,178.69189)">
    <path
       style="fill:url(#pattern2440);fill-opacity:1;stroke:#000000;stroke-width:4.05078888;stroke-miterlimit:4;stroke-dasharray:none;stroke-opacity:1;display:inline"
       d="M 72.094315,-83.61676 C -14.02074,-83.61676 -83.987644,-13.64986 -83.987648,72.465203 C -83.987648,158.58026 -14.020744,228.42058 72.094315,228.42058 C 158.20937,228.42058 228.04969,158.58026 228.04969,72.465203 C 228.04969,-13.649852 158.20937,-83.61676 72.094315,-83.61676 z M 72.474076,-17.918026 C 83.939004,-18.105707 95.294014,-17.350628 106.65261,-14.879934 L 110.7034,-10.829145 L 114.75418,-14.879934 L 131.08393,-14.879934 C 133.70699,-3.14072 133.17407,9.0380503 131.08393,21.450579 L 114.88077,21.450579 L 110.82998,17.526377 L 106.65261,21.450579 C 84.081093,24.196933 61.162398,24.104956 37.915783,21.450579 L 33.864994,17.526377 L 29.814205,21.450579 L 13.611049,21.450579 C 10.719677,9.427003 11.107179,-2.687752 13.611049,-14.879934 L 29.687618,-14.879934 L 33.864994,-10.829145 L 37.915783,-14.879934 C 49.442003,-16.599908 61.009148,-17.730345 72.474076,-17.918026 z M 66.904241,28.53946 L 80.575654,28.53946 C 84.013656,28.53946 87.060161,37.178488 89.056994,50.439038 L 201.3398,50.059276 C 177.92495,129.70355 132.30281,184.56697 74.879232,227.2813 C 8.0076776,183.4899 -31.272114,122.68771 -52.594033,50.945386 L 58.422902,50.565625 C 60.419289,37.227896 63.454658,28.53946 66.904241,28.53946 z"
       id="path5242" />
    <path
       style="fill:#000000;fill-opacity:1;fill-rule:evenodd;stroke:#000000;stroke-width:4.05078888px;stroke-linecap:butt;stroke-linejoin:miter;stroke-opacity:1;display:inline"
       d="M 73.107012,-79.439384 C 34.265426,-43.680428 -5.622336,-9.984135 -63.733703,4.3613132 C -60.745274,20.327729 -57.068304,35.890734 -52.594033,50.945386 L 58.422902,50.565625 C 58.492458,50.100935 58.604025,49.752984 58.676076,49.299753 C 59.027972,47.079188 59.405972,45.011779 59.815361,43.096983 C 60.077584,41.864684 60.291665,40.648358 60.574884,39.552542 C 60.731195,38.952159 60.918864,38.336581 61.081232,37.780322 C 61.300068,37.02453 61.485003,36.300229 61.714168,35.628341 C 61.746157,35.535282 61.808572,35.466552 61.840755,35.375166 C 62.130289,34.544362 62.422351,33.786285 62.726865,33.096597 C 63.047125,32.371247 63.40425,31.757236 63.739562,31.19779 C 64.07199,30.643152 64.406561,30.187053 64.75226,29.805331 C 65.124231,29.394598 65.50603,29.117973 65.891544,28.919221 C 66.23433,28.742498 66.552163,28.53946 66.904241,28.53946 L 80.575654,28.53946 C 80.953406,28.53946 81.347293,28.719975 81.714939,28.919221 C 81.753247,28.941124 81.803339,28.895172 81.841526,28.919221 C 82.112455,29.076279 82.336552,29.417983 82.601049,29.678744 C 82.751483,29.833906 82.95928,29.870257 83.107397,30.058506 C 83.237176,30.2153 83.359206,30.38361 83.487159,30.564854 C 83.769924,30.976913 83.973662,31.428215 84.246682,31.957313 C 84.615668,32.656625 84.910039,33.46317 85.259379,34.362469 C 85.359316,34.619731 85.540937,34.849038 85.63914,35.121992 C 85.921954,35.914488 86.131072,36.73615 86.398663,37.653735 C 86.437595,37.785985 86.486659,37.898682 86.52525,38.033497 C 86.613914,38.345018 86.691572,38.72143 86.778425,39.046194 C 87.104525,40.26557 87.365591,41.700728 87.664535,43.096983 C 88.142674,45.333334 88.658056,47.789777 89.056994,50.439038 L 201.3398,50.059276 C 205.30783,36.562254 208.70066,22.384031 211.34018,7.3994049 C 165.12086,-9.752729 111.67482,-39.734502 73.107012,-79.439384 z M 72.474076,-17.918026 C 83.939004,-18.105707 95.294014,-17.350628 106.65261,-14.879934 L 110.7034,-10.829145 L 114.75418,-14.879934 L 131.08393,-14.879934 C 133.70699,-3.14072 133.17407,9.0380503 131.08393,21.450579 L 114.88077,21.450579 L 110.82998,17.526377 L 106.65261,21.450579 C 84.081093,24.196933 61.162398,24.104956 37.915783,21.450579 L 33.864994,17.526377 L 29.814205,21.450579 L 13.611049,21.450579 C 10.719677,9.427003 11.107179,-2.687752 13.611049,-14.879934 L 29.687618,-14.879934 L 33.864994,-10.829145 L 37.915783,-14.879934 C 49.442003,-16.599908 61.009148,-17.730345 72.474076,-17.918026 z"
       id="path5246" />
    <rect
       style="fill:none;fill-opacity:1;stroke:#000000;stroke-width:4.59876394;stroke-miterlimit:4;stroke-dasharray:none;stroke-opacity:1;display:inline"
       id="rect4806"
       width="35.471828"
       height="179.45895"
       x="56.038563"
       y="28.560274"
       rx="10.909817"
       ry="58.569324" />
    <rect
       style="fill:none;fill-opacity:1;stroke:#000000;stroke-width:4.05078888;stroke-miterlimit:4;stroke-dasharray:none;stroke-opacity:1;display:inline"
       id="rect4800"
       width="3.4292612"
       height="15.35417"
       x="31.97518"
       y="-4.1951671"
       rx="1.5356115"
       ry="7.6770587" />
    <use
       x="0"
       y="0"
       xlink:href="#rect4800"
       id="use2406"
       transform="translate(76.909342,-1.2473095e-8)"
       width="500"
       height="500" />
    <path
       id="path4767"
       style="fill:none;fill-rule:evenodd;stroke:#000000;stroke-width:4.05078888px;stroke-linecap:butt;stroke-linejoin:miter;stroke-opacity:1;display:inline"
       d="M 11.593606,109.23145 C 1.0175591,103.20764 -9.750941,102.95577 -20.839469,109.23145 L -20.839469,75.597151 C -9.750941,67.357733 1.0656056,67.82165 11.641653,76.005568 C 22.730181,67.790175 33.45063,67.82165 44.026677,75.981543 L 44.026677,109.23145 C 33.45063,103.20764 22.682135,102.95577 11.593606,109.23145 z M 11.606779,76.036856 L 11.606779,109.2453"
       sodipodi:nodetypes="ccccccccc" />
    <use
       style="display:inline"
       x="0"
       y="0"
       xlink:href="#path4767"
       id="use4778"
       transform="translate(125.85195,0.17902)"
       width="124"
       height="124" />
  </g>
  <g
     inkscape:groupmode="layer"
     id="layer4"
     inkscape:label="Text"
     style="display:inline"
     transform="translate(176.08073,178.69189)">
    <path
       style="font-size:12px;font-style:normal;font-variant:normal;font-weight:normal;font-stretch:normal;text-align:start;line-height:125%;writing-mode:lr-tb;text-anchor:start;fill:#000000;fill-opacity:1;stroke:none;stroke-width:1px;stroke-linecap:butt;stroke-linejoin:miter;stroke-opacity:1;display:inline;font-family:Century;-inkscape-font-specification:Century"
       d="M -122.37514,102.04403 L -123.86252,84.805194 C -124.19845,80.9113 -123.57202,77.863462 -121.98322,75.661672 C -120.39436,73.459927 -118.17323,72.235948 -115.31983,71.989721 C -112.46637,71.743555 -110.20921,72.501737 -108.54835,74.264268 C -106.25871,76.6873 -104.94931,79.806346 -104.62016,83.621412 L -104.08152,89.864281 L -92.139668,88.833931 C -91.446008,88.774092 -90.963698,88.565716 -90.692738,88.208801 C -90.352458,87.734753 -90.214298,87.127248 -90.278228,86.38629 L -90.620998,82.413556 L -88.847452,82.260533 L -87.400879,99.026421 L -89.174424,99.179443 L -89.476386,95.679655 C -89.536232,94.986006 -89.718044,94.489492 -90.021808,94.190111 C -90.325578,93.890745 -90.713938,93.76146 -91.186888,93.802256 L -119.06698,96.207772 C -119.77636,96.268988 -120.27103,96.518136 -120.551,96.95522 C -120.8309,97.392312 -120.92189,98.178392 -120.82399,99.313455 L -120.6016,101.891 L -122.37514,102.04403 z M -105.80777,90.013225 L -106.21787,85.26013 C -106.47765,82.249069 -107.29167,80.131532 -108.65993,78.907521 C -110.02815,77.683551 -112.15475,77.196014 -115.03973,77.444907 C -117.0576,77.619038 -118.58065,78.052209 -119.60888,78.744424 C -120.63705,79.436679 -121.36129,80.384601 -121.78158,81.588179 C -122.20181,82.791798 -122.29769,84.717843 -122.06921,87.366318 C -121.91819,89.116226 -121.65711,90.209421 -121.28596,90.645909 C -120.91474,91.082414 -120.31926,91.265299 -119.49952,91.19456 L -105.80777,90.013225 z M -124.88102,62.39932 L -122.85907,44.37879 C -122.46735,40.88793 -121.36934,38.268446 -119.56504,36.52034 C -117.76068,34.772295 -115.56909,34.042935 -112.99026,34.332254 C -111.44922,34.505195 -110.12002,35.040462 -109.00267,35.938052 C -107.88528,36.835703 -107.04958,38.044057 -106.49556,39.563119 C -105.94151,41.082238 -105.68015,43.400444 -105.71149,46.517752 C -104.84591,44.33795 -104.07065,42.856556 -103.38571,42.073559 C -102.70074,41.290614 -101.86179,40.696092 -100.86884,40.289989 C -99.875868,39.883946 -97.903518,39.512128 -94.951798,39.174539 C -92.838928,38.933954 -91.375108,38.588677 -90.560328,38.138696 C -89.932647,37.795164 -89.592336,37.387513 -89.539404,36.915742 C -89.48471,36.428307 -89.791724,35.936083 -90.460438,35.439067 C -91.129158,34.942117 -92.362398,34.544998 -94.160158,34.247718 L -93.980188,32.643796 C -88.66731,33.54248 -86.215537,35.815872 -86.624866,39.463976 C -86.753664,40.611909 -87.156167,41.573854 -87.832373,42.349819 C -88.508584,43.125836 -89.436595,43.662598 -90.616408,43.960109 C -91.502598,44.195075 -93.769108,44.31495 -97.415948,44.31973 C -99.533788,44.320965 -101.06168,44.527693 -101.99961,44.939922 C -102.93753,45.352191 -103.73468,46.070825 -104.39108,47.09582 C -105.04744,48.120856 -105.46032,49.38815 -105.62972,50.897705 L -105.94995,53.751745 L -92.245848,55.289384 C -91.664038,55.354674 -91.238428,55.251164 -90.969038,54.978846 C -90.627928,54.634991 -90.412378,54.062076 -90.322398,53.2601 L -89.946585,49.910734 L -88.177553,50.109227 L -89.995726,66.313549 L -91.764758,66.11506 L -91.381008,62.694935 C -91.296318,61.940151 -91.383508,61.369095 -91.642578,60.981759 C -91.901648,60.594439 -92.290648,60.371661 -92.809558,60.313431 L -120.6895,57.185222 C -121.287,57.118185 -121.75545,57.248738 -122.09483,57.576872 C -122.43415,57.905027 -122.64529,58.438629 -122.72824,59.177683 L -123.11199,62.597809 L -124.88102,62.39932 z M -107.64822,53.561191 L -107.18507,49.433454 C -106.87453,46.665922 -107.15433,44.44118 -108.02449,42.759216 C -108.89461,41.077304 -110.66628,40.086363 -113.3395,39.786398 C -115.17927,39.579995 -116.66689,39.711629 -117.80236,40.181302 C -118.93778,40.651031 -119.75587,41.343429 -120.25664,42.258502 C -120.75736,43.173624 -121.16564,45.038534 -121.48149,47.853237 C -121.68965,49.708774 -121.68872,50.871233 -121.4787,51.340622 C -121.26861,51.810039 -120.84909,52.080029 -120.22013,52.150589 L -107.64822,53.561191 z M -113.87533,2.135595 C -112.89754,-0.657132 -111.24568,-3.016895 -108.91976,-4.943702 C -106.5938,-6.870435 -103.87103,-8.063109 -100.75145,-8.521731 C -97.631828,-8.980268 -94.421768,-8.631791 -91.121238,-7.476287 C -87.820707,-6.320711 -85.084403,-4.583133 -82.912321,-2.263546 C -80.740244,0.0561063 -79.336046,2.6894715 -78.699716,5.6365623 C -78.063397,8.5837017 -78.221046,11.416301 -79.172661,14.134368 C -80.103375,16.792731 -81.704623,19.031898 -83.976415,20.851877 C -86.248207,22.671876 -88.986467,23.813024 -92.191198,24.275324 C -95.395918,24.737636 -98.648548,24.391019 -101.9491,23.23547 C -105.20481,22.095627 -107.90397,20.383626 -110.04658,18.099467 C -112.18914,15.815336 -113.58774,13.225845 -114.24239,10.330977 C -114.89699,7.4361537 -114.77463,4.7043623 -113.87533,2.135595 L -113.87533,2.135595 z M -112.0249,2.3810809 C -113.04447,5.293343 -112.6609,8.0765226 -110.87421,10.730628 C -109.08746,13.384774 -105.46108,15.668686 -99.995058,17.582371 C -94.066028,19.658174 -89.642327,20.167508 -86.723919,19.110374 C -83.805516,18.053268 -81.867886,16.158199 -80.911033,13.42516 C -80.241766,11.51356 -80.168779,9.653037 -80.692072,7.843582 C -81.215377,6.0341796 -82.446793,4.307944 -84.386319,2.6648751 C -86.325852,1.021867 -89.117628,-0.437551 -92.761658,-1.713388 C -96.734238,-3.104186 -99.978058,-3.787213 -102.49314,-3.762471 C -105.00819,-3.73766 -107.06479,-3.166778 -108.66297,-2.049826 C -110.2611,-0.932805 -111.38175,0.5441615 -112.0249,2.3810809 L -112.0249,2.3810809 z M -78.026349,-55.120075 L -79.161202,-58.676765 L -78.108803,-60.053203 L -67.85931,-52.395887 L -68.810792,-51.151436 C -72.524069,-52.755565 -75.681076,-53.341831 -78.281816,-52.910236 C -80.882532,-52.478572 -82.94216,-51.269711 -84.460707,-49.283658 C -85.729329,-47.624362 -86.27079,-45.887152 -86.085082,-44.072018 C -85.899337,-42.256835 -85.089977,-40.801431 -83.656994,-39.705806 C -82.764492,-39.02341 -81.828225,-38.626251 -80.848185,-38.514332 C -79.868117,-38.402372 -78.862391,-38.584524 -77.831008,-39.060783 C -76.799604,-39.537002 -75.199307,-40.698691 -73.030126,-42.545851 C -69.977427,-45.131668 -67.627261,-46.785654 -65.97961,-47.507816 C -64.331964,-48.229914 -62.747867,-48.497695 -61.227318,-48.311153 C -59.706777,-48.124545 -58.242575,-47.493047 -56.834707,-46.416651 C -54.320682,-44.494434 -52.883511,-42.056078 -52.523189,-39.101574 C -52.162896,-36.147026 -53.006307,-33.331039 -55.053425,-30.653605 C -57.254341,-27.775022 -60.097107,-25.984767 -63.581738,-25.282834 L -62.608767,-21.16272 L -63.646745,-19.805143 L -74.450823,-28.065747 L -73.412841,-29.423328 C -70.030043,-27.673472 -66.775991,-27.057825 -63.650678,-27.576379 C -60.525373,-28.094917 -58.083314,-29.504364 -56.324506,-31.804718 C -54.902096,-33.665092 -54.291521,-35.603418 -54.49278,-37.619707 C -54.69406,-39.635955 -55.580328,-41.24477 -57.151592,-42.446161 C -58.044082,-43.128512 -58.994766,-43.506816 -60.003647,-43.581071 C -61.012541,-43.655273 -62.111605,-43.39012 -63.300844,-42.785613 C -64.490091,-42.181053 -66.483156,-40.727095 -69.280043,-38.423736 C -72.363792,-35.901455 -74.785876,-34.426948 -76.546312,-34.000205 C -79.029827,-33.409236 -81.4469,-34.012378 -83.79754,-35.80964 C -86.248709,-37.683754 -87.658513,-40.001595 -88.026961,-42.763168 C -88.395364,-45.524692 -87.647317,-48.124772 -85.782816,-50.563416 C -84.888977,-51.732412 -83.831,-52.686292 -82.608885,-53.425059 C -81.386734,-54.163757 -79.859222,-54.728761 -78.026349,-55.120075 L -78.026349,-55.120075 z M -46.003444,-85.722911 L -46.931115,-89.375528 L -45.785783,-90.336863 L -36.233812,-79.916583 L -37.45186,-78.894208 C -40.805176,-81.26486 -43.693109,-82.66269 -46.115667,-83.087711 C -49.134295,-83.6321 -51.685919,-83.029448 -53.770549,-81.279754 C -56.024845,-79.387562 -57.016661,-76.840418 -56.746003,-73.638322 C -56.475325,-70.436161 -54.325762,-66.435355 -50.297309,-61.635895 C -46.909739,-57.599948 -43.513793,-55.203076 -40.109469,-54.44527 C -37.222221,-53.811221 -34.530245,-54.542007 -32.033533,-56.63763 C -29.851964,-58.468737 -28.60934,-60.704764 -28.305661,-63.345721 C -28.002022,-65.986641 -28.81111,-68.907276 -30.732938,-72.107638 L -29.442166,-73.19105 C -27.132265,-69.676006 -26.164021,-66.295023 -26.537439,-63.048085 C -26.910897,-59.80111 -28.479282,-57.017922 -31.242604,-54.698522 C -33.484801,-52.816529 -36.015195,-51.65326 -38.833787,-51.20871 C -41.652399,-50.764144 -44.509825,-51.128829 -47.406083,-52.302772 C -50.30234,-53.476694 -52.808446,-55.32413 -54.924412,-57.845081 C -57.172608,-60.523568 -58.704754,-63.524198 -59.520854,-66.846996 C -60.336926,-70.169741 -60.337967,-73.179849 -59.523969,-75.877331 C -58.709947,-78.574747 -57.260627,-80.798338 -55.176014,-82.548109 C -54.012494,-83.524665 -52.717493,-84.270764 -51.291,-84.786409 C -49.864502,-85.301969 -48.101984,-85.614135 -46.003444,-85.722911 L -46.003444,-85.722911 z M -34.317943,-96.855233 L -20.227387,-104.82304 L -19.351161,-103.27349 L -21.768457,-101.90658 C -22.842807,-101.29903 -23.445224,-100.78114 -23.575712,-100.35292 C -23.706188,-99.924633 -23.526086,-99.276633 -23.035406,-98.408913 L -9.95045,-75.268999 C -9.428615,-74.346149 -8.977532,-73.83775 -8.597187,-73.7438 C -8.087484,-73.613924 -7.398757,-73.79433 -6.531001,-74.285026 L -3.824458,-75.815499 L -2.948232,-74.265951 L -17.038788,-66.298146 L -17.915014,-67.847695 L -15.24979,-69.354799 C -14.313178,-69.884423 -13.78502,-70.364863 -13.665315,-70.796118 C -13.545619,-71.227361 -13.746688,-71.904406 -14.268522,-72.827253 L -27.353482,-95.967173 C -27.851948,-96.848663 -28.283564,-97.322623 -28.648329,-97.389073 C -29.213123,-97.487753 -30.012039,-97.245033 -31.045084,-96.660913 L -33.441721,-95.305683 L -34.317943,-96.855233 z M -9.235814,-110.39743 L 17.039256,-119.53175 L 21.556084,-108.56289 L 20.054011,-108.04071 C 18.229933,-111.3601 16.427283,-113.49755 14.646062,-114.45306 C 12.864809,-115.40851 10.935442,-115.52514 8.8579584,-114.80295 L 2.3564502,-112.54276 C 1.8333394,-112.36087 1.4866284,-112.08119 1.3163251,-111.70372 C 1.1460178,-111.32619 1.1621804,-110.84599 1.3648211,-110.26313 L 5.472147,-98.448323 L 8.3193574,-99.438133 C 9.8438394,-99.968093 10.890972,-100.94357 11.460756,-102.36459 C 12.030516,-103.78556 11.960482,-105.63747 11.25065,-107.92032 L 12.797561,-108.45809 L 18.136303,-93.101083 L 16.589392,-92.563313 C 15.631352,-95.078133 14.479384,-96.717253 13.133485,-97.480663 C 11.787562,-98.244043 10.285104,-98.337373 8.6261075,-97.760653 L 6.025505,-96.856573 L 10.608248,-83.674204 C 10.774504,-83.195927 11.062471,-82.885605 11.472151,-82.74324 C 11.881808,-82.600863 12.460293,-82.659575 13.207603,-82.919372 L 18.341556,-84.70415 C 23.91639,-86.642193 25.893163,-91.316443 24.271883,-98.726923 L 25.886053,-99.288073 L 29.619953,-86.74036 L 2.291192,-77.239736 L 1.7066551,-78.921162 L 3.9709772,-79.708336 C 4.8527854,-80.014887 5.4197865,-80.383712 5.6719805,-80.814809 C 5.9241624,-81.245898 5.948937,-81.752891 5.7463084,-82.335791 L -3.388006,-108.61085 C -3.590643,-109.19371 -3.898252,-109.57259 -4.310845,-109.74749 C -4.723426,-109.92231 -5.266004,-109.89284 -5.938581,-109.65906 L -8.651277,-108.71601 L -9.235814,-110.39743 z M 31.909415,-123.27804 L 40.244824,-124.12656 L 64.10084,-98.832343 L 62.079278,-118.69092 C 61.87573,-120.69013 61.268577,-122.12341 60.257812,-122.99076 C 59.333718,-123.78735 58.043627,-124.11727 56.387534,-123.98052 L 56.20725,-125.7515 L 68.415202,-126.99425 L 68.595482,-125.22327 C 67.351829,-125.09663 66.440677,-124.82892 65.862026,-124.42014 C 65.28331,-124.01128 64.812179,-123.32711 64.448637,-122.36764 C 64.085034,-121.40809 63.958532,-120.38524 64.069139,-119.29907 L 66.893551,-91.553733 L 64.673926,-91.327773 L 39.972927,-117.65729 L 42.117083,-96.594443 C 42.310974,-94.689653 42.935735,-93.317813 43.991355,-92.478923 C 45.046958,-91.640013 46.583855,-91.307383 48.602056,-91.481023 L 48.782336,-89.710046 L 35.464573,-88.354328 L 35.284289,-90.125303 C 36.946534,-90.358133 38.213175,-91.039783 39.084225,-92.170243 C 39.955258,-93.300693 40.31466,-94.613673 40.162431,-96.109173 L 37.751458,-119.79307 L 37.306771,-120.17724 C 36.433129,-120.94715 35.823007,-121.39401 35.476402,-121.51781 C 34.997449,-121.69169 34.395902,-121.74179 33.671771,-121.66811 L 32.089695,-121.50706 L 31.909415,-123.27804 z M 79.81161,-126.40016 L 108.12862,-123.33791 L 107.38646,-110.0729 L 105.75823,-110.24898 C 105.52716,-118.12035 103.14628,-122.30103 98.615588,-122.79102 C 97.703123,-122.88966 97.060777,-122.79997 96.688546,-122.52194 C 96.316267,-122.24385 96.09101,-121.743 96.012777,-121.01937 L 92.996467,-93.127113 C 92.935203,-92.560773 93.0553,-92.126023 93.356764,-91.822853 C 93.658188,-91.519693 94.186471,-91.327283 94.941611,-91.245623 L 98.457639,-90.865393 L 98.266252,-89.095578 L 82.054759,-90.848713 L 82.246151,-92.618533 L 86.257728,-92.184713 C 86.79259,-92.126863 87.216076,-92.216353 87.528181,-92.453163 C 87.840258,-92.689983 88.020121,-93.028633 88.067771,-93.469123 L 91.127461,-121.76253 C 91.192091,-122.36031 91.060088,-122.83216 90.731452,-123.17809 C 90.402779,-123.52395 89.837297,-123.74028 89.034998,-123.82708 C 86.753889,-124.07372 84.733825,-123.20196 82.974791,-121.21177 C 81.524009,-119.57016 80.316618,-116.86775 79.352612,-113.10452 L 77.629993,-113.29081 L 79.81161,-126.40016 z M 117.84807,-121.0532 L 133.48857,-116.88134 L 133.02979,-115.16134 L 130.34659,-115.87704 C 129.15404,-116.1951 128.36131,-116.24688 127.96838,-116.03238 C 127.57542,-115.81782 127.25049,-115.22895 126.99359,-114.26578 L 120.14245,-88.580499 C 119.8692,-87.556148 119.83552,-86.877313 120.04141,-86.543998 C 120.31453,-86.094482 120.9327,-85.741265 121.89591,-85.484344 L 124.90017,-84.683004 L 124.44139,-82.963007 L 108.80089,-87.134866 L 109.25967,-88.854863 L 112.21806,-88.065758 C 113.2577,-87.788449 113.97119,-87.761904 114.35854,-87.986119 C 114.74586,-88.210334 115.07615,-88.834618 115.34939,-89.858973 L 122.20053,-115.54425 C 122.46151,-116.52271 122.485,-117.16333 122.27099,-117.46609 C 121.93668,-117.93189 121.1962,-118.31773 120.04955,-118.62362 L 117.38929,-119.3332 L 117.84807,-121.0532 z M 157.61132,-108.40787 L 159.05991,-107.75176 L 157.29088,-73.298943 C 157.21676,-71.908108 157.89319,-70.889525 159.32019,-70.243189 L 160.31474,-69.792721 L 159.58029,-68.171166 L 146.82406,-73.948908 L 147.55851,-75.570463 L 148.57469,-75.110204 C 149.90074,-74.509586 150.90292,-74.229372 151.58124,-74.269556 C 152.04737,-74.301614 152.37512,-74.526644 152.56447,-74.944636 C 152.67543,-75.189677 152.74249,-75.471976 152.76566,-75.791531 L 153.18125,-83.784953 L 140.55474,-89.503938 L 137.30021,-86.287907 C 136.44097,-85.426381 135.87426,-84.692929 135.60007,-84.087551 C 135.28017,-83.381271 135.33389,-82.627367 135.76122,-81.825837 C 136.18855,-81.024308 137.02921,-80.33955 138.28322,-79.771569 L 139.36426,-79.28193 L 138.6298,-77.660374 L 127.04109,-82.909306 L 127.77555,-84.530861 C 129.01513,-83.969405 130.11768,-83.795724 131.08319,-84.009816 C 132.0487,-84.223908 133.17689,-84.950579 134.46777,-86.189837 L 157.61132,-108.40787 z M 154.19338,-102.52996 L 142.01044,-90.876983 L 153.31808,-85.755358 L 154.19338,-102.52996 z M 208.92748,-75.344895 L 210.11493,-74.287137 L 198.16553,-41.924541 C 197.68055,-40.618891 198.02294,-39.445073 199.1927,-38.403085 L 200.00796,-37.676859 L 198.82391,-36.347621 L 188.36723,-45.662212 L 189.55129,-46.991454 L 190.38428,-46.249443 C 191.47128,-45.281162 192.34453,-44.715194 193.00404,-44.551538 C 193.45857,-44.443322 193.83845,-44.560527 194.1437,-44.903163 C 194.3226,-45.104038 194.4707,-45.353554 194.58799,-45.651708 L 197.36529,-53.158643 L 187.01495,-62.37851 L 182.95031,-60.277673 C 181.87349,-59.711134 181.11406,-59.179739 180.67202,-58.683489 C 180.15629,-58.104534 179.98304,-57.368842 180.15228,-56.476413 C 180.3215,-55.583992 180.92009,-54.679945 181.94804,-53.764264 L 182.8342,-52.974895 L 181.65014,-51.645657 L 172.15052,-60.107727 L 173.33458,-61.436965 C 174.3507,-60.531816 175.3515,-60.03766 176.33696,-59.954489 C 177.32241,-59.871323 178.61582,-60.229023 180.2172,-61.0276 L 208.92748,-75.344895 z M 203.91409,-70.751624 L 188.81352,-63.25572 L 198.08274,-54.998888 L 203.91409,-70.751624 z M 228.95083,-54.506028 L 245.65142,-31.433974 L 235.30728,-23.096693 L 234.347,-24.423334 C 240.03524,-29.869065 241.54331,-34.43769 238.87125,-38.129215 C 238.3331,-38.872648 237.83611,-39.289373 237.38032,-39.379398 C 236.92444,-39.469414 236.40173,-39.301027 235.81213,-38.874236 L 213.08616,-22.424124 C 212.62471,-22.090124 212.38246,-21.709666 212.35941,-21.282749 C 212.33633,-20.855865 212.54747,-20.334784 212.99284,-19.719517 L 215.0665,-16.854735 L 213.62449,-15.810948 L 204.06339,-29.019699 L 205.50539,-30.063487 L 207.87131,-26.794945 C 208.18676,-26.359149 208.53694,-26.104752 208.92186,-26.031748 C 209.30676,-25.958765 209.67866,-26.052164 210.03757,-26.311941 L 233.09041,-42.998648 C 233.57744,-43.351209 233.83924,-43.765357 233.87586,-44.241102 C 233.91235,-44.716823 233.69406,-45.281543 233.22088,-45.935264 C 231.87554,-47.79383 229.87485,-48.709236 227.21887,-48.681472 C 225.0282,-48.658455 222.21311,-47.743973 218.77369,-45.938026 L 217.75773,-47.341576 L 228.95083,-54.506028 z M 231.94744,16.460526 C 231.44676,16.944571 230.73633,17.542192 229.81616,18.253393 C 228.08874,19.576931 227.03091,20.594461 226.64261,21.305982 C 226.25434,22.017443 226.18543,22.672406 226.43598,23.27087 C 226.66817,23.82548 227.17844,24.173645 227.96685,24.315366 C 228.75517,24.457018 229.87797,24.239985 231.3352,23.664258 L 231.88518,24.977889 C 229.2518,26.063168 227.10395,26.361966 225.44167,25.874284 C 223.77939,25.386536 222.60911,24.332606 221.93085,22.712493 C 221.30144,21.209087 221.39177,19.734616 222.20181,18.289084 C 223.0118,16.843499 225.06041,15.252524 228.3475,13.516153 C 227.80097,12.784309 227.31775,12.060291 226.89781,11.3441 C 226.4779,10.627868 226.12435,9.926761 225.83715,9.240772 C 224.70058,6.5259171 224.35533,3.7242375 224.8014,0.8357211 C 225.24747,-2.052811 226.5052,-4.723614 228.57455,-7.176695 C 230.64385,-9.62978 233.33516,-11.549874 236.64842,-12.936982 C 241.34831,-14.904592 246.00072,-15.059733 250.60574,-13.402413 C 254.78806,-11.894082 257.74084,-9.081902 259.46404,-4.965855 C 260.61892,-2.20724 260.97604,0.6023349 260.53544,3.4628644 C 260.09475,6.3233736 258.85894,8.9850133 256.82799,11.447788 C 254.79697,13.910522 252.16865,15.817119 248.94301,17.167587 C 245.9946,18.401903 243.14277,18.965412 240.3875,18.858115 C 237.63219,18.750765 234.81888,17.951568 231.94744,16.460526 L 231.94744,16.460526 z M 234.51049,14.100941 C 236.32926,14.265812 238.18347,14.167131 240.07316,13.804889 C 241.96281,13.442603 244.214,12.714575 246.82667,11.620797 C 250.50479,10.080906 253.24499,8.4619836 255.04722,6.7640224 C 256.84942,5.066033 257.95585,3.2733766 258.36656,1.3860573 C 258.77715,-0.501282 258.59754,-2.364487 257.82761,-4.203566 C 257.06986,-6.013462 255.87922,-7.423384 254.25566,-8.433335 C 252.63198,-9.44329 250.56689,-9.899591 248.0603,-9.802238 C 245.55363,-9.704885 242.43935,-8.877111 238.7174,-7.318906 C 236.09014,-6.218999 233.93589,-5.034083 232.25469,-3.764144 C 230.57345,-2.494218 229.10014,-0.993984 227.83479,0.7365659 C 228.49394,0.4262795 229.02791,0.1855898 229.4366,0.0145047 C 231.24645,-0.74322 232.97816,-0.786312 234.63161,-0.11478 C 236.28506,0.5567392 237.50593,1.8339368 238.29421,3.7168164 C 239.08857,5.6142708 239.11972,7.4710309 238.38763,9.287109 C 237.82756,10.65372 236.5352,12.25833 234.51049,14.100941 L 234.51049,14.100941 z M 230.60258,12.572064 C 233.2176,11.442947 234.97877,10.302508 235.88606,9.1507554 C 237.05573,7.683268 237.28002,6.0883792 236.55902,4.3660769 C 235.98458,2.9940504 235.07619,2.0534855 233.83381,1.5443743 C 232.59143,1.0352468 231.27691,1.0709423 229.89033,1.6514609 C 228.51828,2.2258466 227.44535,3.3097364 226.67149,4.9031345 C 226.65285,6.1288587 226.88189,7.3109681 227.3585,8.4494626 C 227.72514,9.3251986 228.17984,10.104036 228.72265,10.785978 C 229.26545,11.467884 229.89211,12.063244 230.60258,12.572064 L 230.60258,12.572064 z M 268.97068,23.481973 L 271.3352,39.51967 L 269.57412,39.779318 L 269.09982,36.562388 C 268.97282,35.701401 268.7431,35.119484 268.41057,34.816648 C 268.07801,34.51379 267.62213,34.405063 267.04295,34.490466 L 247.43612,37.38123 C 245.3854,37.683565 243.86219,38.092079 242.86642,38.606772 C 241.39513,39.367494 240.30215,40.524298 239.58743,42.077184 C 238.87271,43.630042 238.68382,45.549229 239.0208,47.834757 C 239.48701,50.996876 240.66036,53.287022 242.54086,54.705203 C 244.42136,56.123332 246.73136,56.630462 249.47087,56.22659 L 265.41461,53.875897 C 266.82348,53.668153 267.87745,53.412795 268.57654,53.10982 C 269.27558,52.806797 269.80149,52.441359 270.15432,52.013502 C 270.50702,51.585597 270.7397,51.075457 270.85235,50.483082 C 270.96488,49.890658 270.92425,48.936985 270.73042,47.622054 L 272.4915,47.362407 L 274.42677,60.488425 L 272.66569,60.748077 L 272.52719,59.808825 C 272.31019,58.337303 271.75337,57.29979 270.85672,56.696279 C 269.95996,56.092716 268.7602,55.901729 267.25744,56.123324 L 250.18656,58.640192 C 246.46089,59.189463 243.44706,58.54619 241.14508,56.710368 C 238.55342,54.645296 236.96446,51.6247 236.37823,47.648563 C 235.87047,44.20463 235.96039,41.424339 236.64797,39.307676 C 237.33555,37.190993 238.52932,35.551493 240.22932,34.38918 C 241.5233,33.510633 243.22694,32.915572 245.34024,32.604001 L 266.30903,29.512443 C 266.84122,29.433967 267.23285,29.188295 267.48392,28.775414 C 267.73486,28.362538 267.80616,27.788225 267.69772,27.05248 L 267.20956,23.741624 L 268.97068,23.481973 z M 274.28256,73.795466 L 271.87922,101.50898 L 260.02228,101.14781 L 260.15968,99.563507 C 263.9347,99.255537 266.62227,98.48402 268.22238,97.248951 C 269.82244,96.013824 270.7175,94.300661 270.90756,92.109459 L 271.50226,85.25202 C 271.55006,84.700254 271.43651,84.269518 271.16163,83.959803 C 270.8867,83.650055 270.44184,83.468531 269.82705,83.415231 L 257.36545,82.334553 L 257.10503,85.337638 C 256.96556,86.94557 257.42783,88.299956 258.49181,89.400802 C 259.55579,90.501604 261.27454,91.194645 263.64814,91.479918 L 263.50665,93.111515 L 247.30888,91.706835 L 247.45037,90.075238 C 250.13714,90.2288 252.10392,89.847434 253.35079,88.931146 C 254.59763,88.014812 255.29692,86.681742 255.4487,84.931935 L 255.68656,82.18896 L 241.78251,80.98319 C 241.27807,80.939429 240.87712,81.075402 240.57975,81.391104 C 240.28234,81.706782 240.09949,82.25873 240.03115,83.046957 L 239.56154,88.461971 C 239.05163,94.341999 242.50959,98.05667 249.93545,99.605995 L 249.7878,101.30853 L 236.80992,99.587479 L 239.30963,70.762587 L 241.0831,70.916384 L 240.87598,73.304664 C 240.79533,74.234745 240.90017,74.902976 241.19053,75.309347 C 241.48089,75.715706 241.93348,75.945548 242.54827,75.998872 L 270.26179,78.402209 C 270.87657,78.455514 271.34809,78.329635 271.67636,78.02457 C 272.00456,77.719485 272.19944,77.212254 272.26097,76.502875 L 272.50908,73.641665 L 274.28256,73.795466 z"
       id="text5201" />
    <path
       style="font-size:12px;font-style:normal;font-variant:normal;font-weight:normal;font-stretch:normal;text-align:start;line-height:125%;writing-mode:lr-tb;text-anchor:start;fill:#000000;fill-opacity:1;stroke:none;stroke-width:1px;stroke-linecap:butt;stroke-linejoin:miter;stroke-opacity:1;display:inline;font-family:Century;-inkscape-font-specification:Century"
       d="M -39.533658,199.8024 L -35.901712,198.93813 L -34.608287,200.09103 L -43.014448,209.73588 L -44.183846,208.69353 C -42.30511,205.11135 -41.483173,202.00736 -41.718038,199.38153 C -41.952967,196.75572 -43.003572,194.61104 -44.869851,192.94749 C -46.429081,191.55772 -48.120674,190.8872 -49.944627,190.93592 C -51.768641,190.98468 -53.280768,191.68235 -54.481016,193.02891 C -55.228577,193.86759 -55.694997,194.77135 -55.880272,195.7402 C -56.065596,196.70908 -55.959567,197.72565 -55.562188,198.78992 C -55.164854,199.85421 -54.126755,201.5373 -52.447893,203.83921 C -50.098881,207.07766 -48.626249,209.54552 -48.029993,211.24279 C -47.433798,212.94006 -47.285863,214.5398 -47.586189,216.04203 C -47.886571,217.54424 -48.626354,218.95682 -49.805543,220.27979 C -51.911313,222.6422 -54.45081,223.892 -57.42404,224.02919 C -60.397315,224.16636 -63.141927,223.11364 -65.657893,220.87104 C -68.362876,218.45995 -69.934359,215.49065 -70.372347,211.9631 L -74.553944,212.62359 L -75.829651,211.48649 L -66.78022,201.33398 L -65.50451,202.47109 C -67.50372,205.71277 -68.362248,208.91133 -68.080106,212.06678 C -67.797981,215.22222 -66.576109,217.76332 -64.414483,219.69009 C -62.666304,221.24833 -60.779361,222.00289 -58.753651,221.95378 C -56.727977,221.90464 -55.057087,221.14182 -53.740974,219.66532 C -52.993461,218.82665 -52.54476,217.90709 -52.394872,216.90665 C -52.245034,215.90619 -52.426817,214.7903 -52.94021,213.55898 C -53.453659,212.32766 -54.753671,210.23093 -56.840257,207.2688 C -59.123577,204.00416 -60.411829,201.47808 -60.705021,199.69055 C -61.107625,197.16964 -60.324482,194.80474 -58.355592,192.59587 C -56.302515,190.29252 -53.885251,189.06095 -51.103793,188.90115 C -48.322391,188.74139 -45.785905,189.68278 -43.494321,191.72533 C -42.395832,192.70452 -41.524183,193.83121 -40.879379,195.10541 C -40.234647,196.37963 -39.786071,197.94529 -39.533658,199.8024 L -39.533658,199.8024 z M -15.251637,213.85457 L -13.923233,214.72878 L -21.049013,248.48305 C -21.339353,249.84524 -20.830221,250.95694 -19.521618,251.8181 L -18.609583,252.41831 L -19.588176,253.90535 L -31.286049,246.20707 L -30.307451,244.72002 L -29.375587,245.33327 C -28.159561,246.13355 -27.21341,246.56678 -26.537131,246.63297 C -26.071707,246.67408 -25.712856,246.50298 -25.460573,246.11969 C -25.312719,245.89496 -25.202408,245.62659 -25.129636,245.31456 L -23.471291,237.48402 L -35.050196,229.86404 L -38.766884,232.53258 C -39.750079,233.24941 -40.424341,233.88538 -40.789674,234.44054 C -41.215914,235.08822 -41.280548,235.84126 -40.983577,236.69966 C -40.686622,237.55811 -39.963159,238.36567 -38.813193,239.12248 L -37.821847,239.77486 L -38.800441,241.26191 L -49.427657,234.26818 L -48.449064,232.78117 C -47.312323,233.52927 -46.250405,233.87294 -45.263308,233.81218 C -44.276216,233.75146 -43.048418,233.20979 -41.579902,232.18725 L -15.251637,213.85457 z M -19.545279,219.12685 L -33.397997,228.73508 L -23.028532,235.55912 L -19.545279,219.12685 z M 0.5838655,225.16087 L 16.881867,230.97165 C 20.563228,232.28418 23.07513,234.12053 24.417586,236.4806 C 25.759965,238.84071 25.950267,241.36962 24.988488,244.06732 C 24.026632,246.76502 22.399045,248.50302 20.105727,249.28125 C 16.950345,250.35694 13.569233,250.25178 9.9623898,248.96582 L 4.0602323,246.86151 L 0.0349431,258.15163 C -0.198881,258.80741 -0.209773,259.33268 0.0022694,259.72747 C 0.2920466,260.23398 0.7871948,260.61208 1.487718,260.86185 L 5.2436339,262.20096 L 4.6458184,263.8777 L -11.205044,258.22637 L -10.607233,256.54962 L -7.298447,257.7293 C -6.642657,257.96311 -6.115495,258.00406 -5.716954,257.8522 C -5.318426,257.70029 -5.039452,257.40078 -4.880025,256.95365 L 4.5176272,230.59517 C 4.7567371,229.92448 4.7356811,229.37102 4.4544632,228.93471 C 4.1732088,228.49852 3.4960303,228.08906 2.4229277,227.70645 L -0.013946,226.83762 L 0.5838655,225.16087 z M 4.6421038,245.22949 L 9.1357939,246.83162 C 11.982514,247.84659 14.246824,247.98614 15.928732,247.25023 C 17.610583,246.51436 18.937747,244.78269 19.910224,242.05517 C 20.590372,240.14741 20.829279,238.58207 20.626947,237.35917 C 20.424549,236.13632 19.863308,235.08368 18.943224,234.20122 C 18.023075,233.31884 16.311046,232.43127 13.807131,231.53851 C 12.152712,230.94868 11.049881,230.73188 10.498633,230.88808 C 9.9473371,231.04436 9.5335409,231.50996 9.2572366,232.28499 L 4.6421038,245.22949 z M 32.481325,235.13586 L 48.475173,237.63114 L 48.200764,239.39 L 45.456954,238.96191 C 44.23746,238.77168 43.443692,238.80401 43.075645,239.05884 C 42.707558,239.31372 42.446691,239.93365 42.293041,240.91856 L 38.195206,267.18412 C 38.031765,268.23161 38.070029,268.9102 38.309993,269.21993 C 38.629098,269.63805 39.281138,269.92395 40.266111,270.0776 L 43.338246,270.55689 L 43.063837,272.31574 L 27.069986,269.82045 L 27.344394,268.0616 L 30.369625,268.5336 C 31.432746,268.69948 32.145045,268.65042 32.506521,268.38656 C 32.867981,268.12265 33.130432,267.46695 33.293865,266.41945 L 37.3917,240.15389 C 37.547797,239.15331 37.503437,238.51381 37.258619,238.23536 C 36.87695,237.80752 36.099834,237.50209 34.927277,237.31911 L 32.206917,236.89471 L 32.481325,235.13586 z M 55.963109,238.69205 L 83.779881,238.89693 L 84.357215,250.74533 L 82.767005,250.73362 C 82.161562,246.99474 81.179987,244.3766 79.822284,242.87914 C 78.464529,241.38173 76.685969,240.62492 74.486601,240.60868 L 67.60361,240.55796 C 67.04979,240.55391 66.629375,240.70116 66.342364,240.99966 C 66.055322,241.29824 65.909534,241.75606 65.905005,242.37312 L 65.812878,254.88119 L 68.827155,254.90338 C 70.441078,254.91529 71.75468,254.34737 72.767965,253.1997 C 73.781209,252.05203 74.3362,250.28386 74.432932,247.89515 L 76.07061,247.90723 L 75.950864,264.16531 L 74.313187,264.15324 C 74.253863,261.46279 73.718203,259.53226 72.706211,258.36174 C 71.694174,257.19127 70.309995,256.59953 68.553662,256.58661 L 65.800466,256.56631 L 65.697677,270.52217 C 65.693934,271.02852 65.861175,271.41744 66.1994,271.68892 C 66.5376,271.96041 67.10228,272.09906 67.893444,272.1049 L 73.328631,272.14492 C 79.230569,272.18842 82.660243,268.4476 83.617655,260.92249 L 85.326537,260.93509 L 84.636854,274.0084 L 55.704559,273.79529 L 55.717672,272.01521 L 58.114852,272.03287 C 59.0484,272.03976 59.706245,271.88243 60.088392,271.56084 C 60.470527,271.23924 60.663867,270.76992 60.66842,270.15282 L 60.873301,242.33605 C 60.877838,241.719 60.715077,241.25891 60.385015,240.95579 C 60.05494,240.65275 59.533892,240.49858 58.821864,240.49331 L 55.949997,240.47212 L 55.963109,238.69205 z M 89.234341,239.11057 L 97.382827,237.16089 L 124.39124,259.05731 L 119.74627,239.64406 C 119.27862,237.68968 118.48622,236.34988 117.36907,235.62467 C 116.34723,234.95811 115.02472,234.80268 113.40153,235.1585 L 112.98729,233.42723 L 124.92147,230.57175 L 125.33571,232.30302 C 124.11995,232.59395 123.2525,232.98047 122.73337,233.4626 C 122.21417,233.9448 121.83823,234.68553 121.60554,235.68486 C 121.37279,236.68423 121.38347,237.71483 121.63756,238.77663 L 128.12727,265.89978 L 125.95742,266.41897 L 97.973825,243.60885 L 102.90048,264.19934 C 103.34601,266.06144 104.14768,267.33797 105.30551,268.02903 C 106.46331,268.72006 108.0308,268.84531 110.00796,268.40479 L 110.4222,270.13605 L 97.403093,273.25111 L 96.988856,271.51984 C 98.605363,271.06798 99.770087,270.22391 100.48303,268.98765 C 101.19596,267.75139 101.37754,266.40228 101.02774,264.94031 L 95.488014,241.78754 L 94.996179,241.4659 C 94.027895,240.81903 93.363756,240.4573 93.003766,240.3807 C 92.505937,240.2721 91.903074,240.30244 91.195174,240.47176 L 89.648579,240.84184 L 89.234341,239.11057 z M 127.36526,229.16232 L 152.82964,216.40317 L 159.38867,227.95698 L 157.92447,228.69065 C 153.46787,222.19828 149.20244,219.97281 145.12815,222.01424 C 144.30763,222.42541 143.81617,222.84864 143.65378,223.28394 C 143.49139,223.71932 143.57323,224.26236 143.8993,224.91308 L 156.46708,249.99549 C 156.72225,250.50479 157.05864,250.80524 157.47624,250.89687 C 157.89381,250.98854 158.44213,250.86422 159.12119,250.52395 L 162.28302,248.93969 L 163.08047,250.53125 L 148.50211,257.83587 L 147.70467,256.24432 L 151.31212,254.43677 C 151.7931,254.19579 152.10067,253.89125 152.23482,253.52316 C 152.36895,253.15506 152.33678,252.77295 152.13832,252.37683 L 139.38978,226.93369 C 139.12043,226.39614 138.75395,226.07094 138.29034,225.95807 C 137.82674,225.84528 137.2342,225.96961 136.5127,226.33109 C 134.46141,227.35895 133.2352,229.18569 132.83406,231.81138 C 132.50331,233.97709 132.9516,236.90281 134.17894,240.58854 L 132.62986,241.36476 L 127.36526,229.16232 z M 157.03387,212.83674 L 170.08725,203.26391 L 171.13998,204.6994 L 168.90062,206.34166 C 167.90536,207.07159 167.36817,207.65686 167.28906,208.09747 C 167.20996,208.53816 167.46517,209.16042 168.05469,209.96426 L 183.77546,231.40091 C 184.40241,232.25583 184.91027,232.70753 185.29903,232.75598 C 185.82049,232.82488 186.48316,232.56458 187.28704,231.97503 L 189.79436,230.13625 L 190.84709,231.57177 L 177.79371,241.1446 L 176.74098,239.70908 L 179.21002,237.89841 C 180.07769,237.26208 180.54555,236.72275 180.6136,236.28041 C 180.68164,235.83806 180.40219,235.18941 179.77523,234.33449 L 164.05446,212.89786 C 163.45559,212.08126 162.97112,211.66147 162.60107,211.63847 C 162.02858,211.60704 161.26383,211.94221 160.30683,212.64401 L 158.0866,214.27223 L 157.03387,212.83674 z M 187.18612,187.71771 L 188.37259,186.65885 L 219.1585,202.22656 C 220.40022,202.8575 221.60545,202.65143 222.77422,201.60834 L 223.58884,200.88137 L 224.7741,202.2095 L 214.32611,211.53381 L 213.14081,210.20567 L 213.97311,209.46289 C 215.05921,208.4936 215.72122,207.69071 215.95914,207.05421 C 216.11856,206.61502 216.04551,206.22423 215.73999,205.88185 C 215.56086,205.68117 215.32989,205.50554 215.04709,205.35497 L 207.90651,201.73838 L 197.56475,210.96787 L 199.18757,215.24587 C 199.6274,216.38036 200.06858,217.19551 200.51109,217.69134 C 201.02734,218.26983 201.73843,218.52597 202.64435,218.45978 C 203.55026,218.3936 204.51677,217.90219 205.54387,216.98556 L 206.42929,216.19536 L 207.61458,217.5235 L 198.12283,225.9944 L 196.93753,224.66626 C 197.95282,223.76017 198.55806,222.82237 198.75324,221.85286 C 198.94843,220.88335 198.7408,219.55755 198.13037,217.87544 L 187.18612,187.71771 z M 191.17669,193.22294 L 196.89872,209.08088 L 206.16026,200.81543 L 191.17669,193.22294 z"
       id="text4817" />
    <path
       sodipodi:type="arc"
       id="path5195"
       style="fill:#000000;stroke:none;display:inline"
       sodipodi:cx="22.627417"
       sodipodi:cy="84.578796"
       sodipodi:rx="1.5"
       sodipodi:ry="1.5"
       d="M 24.127417,84.578796 A 1.5,1.5 0 1 1 21.127417,84.578796 A 1.5,1.5 0 1 1 24.127417,84.578796 z"
       transform="matrix(8.1015779,0,0,8.1015779,-271.07835,-522.86079)" />
    <use
       style="display:inline"
       x="0"
       y="0"
       xlink:href="#path5195"
       id="use5197"
       transform="translate(324.38655,-2.8643404)"
       width="124"
       height="124" />
  </g>
</svg>
